<?xml version="1.0" encoding="utf-8"?>
<!-- Generator: Adobe Illustrator 16.0.0, SVG Export Plug-In . SVG Version: 6.00 Build 0)  -->
<!DOCTYPE svg PUBLIC "-//W3C//DTD SVG 1.1//EN" "http://www.w3.org/Graphics/SVG/1.1/DTD/svg11.dtd">
<svg version="1.1"
	 id="Layer_1" inkscape:export-ydpi="27.424898" inkscape:export-xdpi="27.424898" inkscape:export-filename="C:\Users\jbrazio\Desktop\marlin.png" sodipodi:docname="marlin.svg" inkscape:version="0.91 r13725" xmlns:dc="http://purl.org/dc/elements/1.1/" xmlns:cc="http://creativecommons.org/ns#" xmlns:rdf="http://www.w3.org/1999/02/22-rdf-syntax-ns#" xmlns:svg="http://www.w3.org/2000/svg" xmlns:sodipodi="http://sodipodi.sourceforge.net/DTD/sodipodi-0.dtd" xmlns:inkscape="http://www.inkscape.org/namespaces/inkscape"
	 xmlns="http://www.w3.org/2000/svg" xmlns:xlink="http://www.w3.org/1999/xlink" x="0px" y="0px" width="595.275px"
	 height="841.89px" viewBox="0 0 595.275 841.89" enable-background="new 0 0 595.275 841.89" xml:space="preserve">
<title  id="title3357">Marlin Firmware</title>
<sodipodi:namedview  units="mm" id="namedview51" inkscape:snap-object-midpoints="false" inkscape:current-layer="Layer_1" inkscape:window-maximized="0" inkscape:window-y="54" inkscape:window-x="309" inkscape:window-height="871" inkscape:window-width="1206" inkscape:pageshadow="2" inkscape:pageopacity="0" pagecolor="#ffffff" bordercolor="#666666" borderopacity="1" objecttolerance="10" gridtolerance="10" guidetolerance="10" showgrid="false" inkscape:zoom="0.66897119" inkscape:cx="372.04724" inkscape:cy="526.1811">
	</sodipodi:namedview>
<g>
	<polygon id="XMLID_535_" fill="#0F2A33" points="364.313,347.901 305.695,314.244 382.247,348.74 	"/>
	<path id="XMLID_538_" fill="#0F2A33" d="M477.952,423.998c-25.141-15.086-46.26-16.763-46.26-16.763s-1.676,15.086-12.404,25.478
		c-10.728,10.394-26.482,40.897-26.482,40.897s5.364-33.188,12.069-48.272c6.703-15.084,9.385-21.119,9.385-21.119
		s-7.24-1.677-15.419-7.041c0,0,33.521,8.38,50.618-13.744c0,0,74.755-14.415,125.037-5.698c0,0-81.794,6.033-107.604,17.431
		c0,0,70.048,16.876,87.827,64.362c17.778,47.485-20.113,77.771-20.113,77.771l13.074-9.386l-7.376,37.545
		c0,0,4.022-22.127-11.732-25.478c-15.755-3.353-21.12,42.909-21.12,42.909s-1.005,34.862-20.447,50.283
		c0,0,8.044-22.461,7.374-43.914c-0.671-21.453-11.731-32.853-7.374-44.92c0,0-7.711-0.671-14.414-16.426
		c-6.706-15.755-24.137-48.271-55.646-58.998c0,0,30.505-4.021,88.161,48.272c0,0,23.801,5.361,34.193-12.738
		c10.393-18.103-0.67-47.602-30.169-62.688c0,0,12.739,11.733,19.776,24.138c0,0-17.766-11.064-27.822,3.686
		C501.083,469.586,503.094,439.082,477.952,423.998z"/>
	<path id="XMLID_541_" fill="#0F2A33" d="M384.76,351.589l-63.021,2.681c0,0,17.767,8.381,27.488,10.727
		c7.086,1.711,12.924,5.563,18.554,10.379c19.394,1.064,38.673-5.803,38.673-5.803c8.271,5.811,22.571,10.728,22.571,10.728
		c-8.83-1.273-22.571-8.716-22.571-8.716c-1.968,1.287-4.52,2.387-7.401,3.328c7.701,6.26,19.604,12,19.604,12
		c-8.621-2.306-21.387-11.318-21.387-11.318c-3.942,1.201-8.184,2.049-12.423,2.646c7.082,6.699,17.567,13.068,17.567,13.068
		c-7.229-2.703-17.059-10.695-19.583-12.803c-0.802,0.098-1.603,0.19-2.399,0.27c-2.825,0.371-5.522,0.655-7.918,0.872
		c0.505,0.477,1.012,0.957,1.52,1.442c7.709,7.375,21.119,12.737,21.119,12.737c55.311-4.693,48.271-44.248,48.271-44.248
		c13.073,43.914-42.573,45.59-42.573,45.59c43.914,6.704,50.618-23.465,50.618-23.465c3.765,1.045,8.157,2.572,12.889,4.404
		c99.283-8.512,116.616,2.513,116.616,2.513c-26.791,0.76-63.745,8.673-81.889,12.924c14.79,7.154,26.468,13.346,26.468,13.346
		c58.998,34.863,47.268,85.481,47.268,85.481c2.347-41.903-36.876-65.367-36.876-65.367c51.96,51.289,14.416,102.912,14.416,102.912
		c69.056-50.955,21.797-122.721-16.418-170.322c-38.217-47.602,7.701-85.117,7.701-85.117
		c-49.948,2.682-101.908,54.642-101.908,54.642c30.507,3.687,61.683,17.096,61.683,17.096
		c-56.318-16.761-109.282-16.426-138.782-18.773c-29.5-2.347-103.92-29.5-103.92-29.5s107.941,41.4,122.021,49.948
		c7.945,4.824,17.432,14.414,17.432,14.414L384.76,351.589z M403.513,337.586c4.443,0,8.045,3.603,8.045,8.046
		c0,4.443-3.602,8.045-8.045,8.045s-8.045-3.602-8.045-8.045C395.468,341.188,399.07,337.586,403.513,337.586z M414.26,360.751
		l3.843,7.822c-4.573-7.981-13.03-9.515-15.178-9.78c-0.324-0.029-0.51-0.053-0.51-0.053s0.186,0.012,0.51,0.053
		c2.359,0.207,11.112-0.586,13.123-6.981c3.576-11.37-8.24-19.331-8.24-19.331C431.022,345.304,414.26,360.751,414.26,360.751z
		 M394.594,362.54c9.609,0,11.397,0.894,18.996,6.704c7.6,5.811,17.432,4.693,17.432,4.693c-12.63,1.745-18.406-4.336-25.477-7.594
		c-8.756-4.034-17.432,0.219-36.428-0.898c-18.995-1.117-29.275-6.705-29.275-6.705C355.932,365.892,384.985,362.54,394.594,362.54z
		"/>
	<circle id="XMLID_544_" fill="#0F2A33" cx="403.513" cy="345.632" r="4.602"/>
</g>
<path fill="#FFFFFF" d="M555.107,438.832c-2.244-2.639-6.491-5.785-13.98-5.785c-0.74,0-1.516,0.032-2.305,0.091l-0.219,0.017
	l-0.216,0.024c-8.026,0.908-14.027,5.642-16.611,12.9c-0.563-0.816-1.931-2.798-1.931-2.798l-0.268-0.332
	c-3.554-4.413-8.92-6.843-15.109-6.843h-0.487l-0.486,0.041c-4.617,0.387-8.593,1.72-11.775,3.824
	c-2.282-1.258-5.277-2.188-9.151-2.188c-0.536,0-1.093,0.019-1.737,0.06c-10.506,0.741-17.81,7.641-19.05,17.923l-3.48,27.222
	c-0.584-0.048-1.181-0.08-1.81-0.08c-0.463,0-0.942,0.014-1.505,0.046c-5.035,0.318-10.117,0.628-15.207,0.921l2.335-23.184
	c0.652-6.979-1.935-11.436-4.22-13.942c-2.314-2.541-6.595-5.568-13.842-5.568c-0.233,0-0.956,0.016-0.956,0.016l-0.247,0.016
	c-6.169,0.424-11.187,2.948-14.529,7.041c-4.837-3.631-10.537-5.532-16.715-5.532c-0.395,0-0.793,0.007-1.189,0.022
	c-8.741,0.337-17.56,0.637-26.282,0.892c-10.979,0.387-18.466,7.604-19.079,18.462l-0.113,2.254
	c-2.877-5.973-4.599-9.429-5.095-10.358c-1.687-3.119-4.237-5.667-7.373-7.368c-2.943-1.6-6.172-2.373-9.46-2.336
	c-3.206,0.045-6.304,0.875-9.212,2.47c-3.089,1.695-5.548,4.079-7.332,7.125c-0.525,0.905-2.635,4.788-6.266,11.699l0.007-1.877
	c-0.016-11.215-7.666-18.792-19.116-18.86c-7.086,0-11.442,2.907-13.858,5.355c-0.531,0.539-1.901,1.883-4.083,4.03
	c-1.194,1.174-2.623,2.58-4.283,4.216c-2.836-2.746-5.039-4.868-6.585-6.36c-1.232-1.186-2.037-1.964-2.432-2.351
	c-3.344-3.26-7.822-5.024-13.308-5.245l-0.714-0.012c-4.066,0-7.209,0.96-9.6,2.241c-2.51-1.604-6.048-3.021-10.843-3.133
	c-0.217-0.004-0.431-0.007-0.643-0.007c-6.715,0-10.892,2.611-13.224,4.812c-0.945,0.892-2.63,2.777-5.041,5.637
	c-2.644-2.921-4.886-5.323-6.027-6.369c-2.363-2.164-6.575-4.796-13.231-5.043c-0.319-0.012-0.633-0.017-0.941-0.017
	c-6.571,0-10.715,2.632-13.026,4.834c-0.08,0.075-0.165,0.161-0.247,0.246c-1.317-1.356-2.802-2.544-4.489-3.506
	c-2.848-1.622-5.897-2.521-9.081-2.673c-3.369-0.147-6.596,0.56-9.568,2.113c-3.353,1.747-5.992,4.449-7.671,7.896
	c-0.653,1.363-4.096,9.238-10.078,23.758c-1.45,3.533-2.675,6.579-3.718,9.235c-1.871-0.652-3.896-1.076-6.072-1.224
	c-2.421-0.15-4.842-0.305-7.263-0.46l-3.468-27.446c-1.357-10.155-8.458-16.807-18.993-17.791l-0.234-0.023l-0.235-0.014
	c-0.469-0.022-0.923-0.036-1.364-0.036c-3.94,0-6.976,0.955-9.281,2.243c-2.955-2.018-6.567-3.292-10.721-3.667
	c-5-0.407-9.998-0.828-14.996-1.263l-0.151-0.014c-1.92-0.161-3.791-0.243-5.56-0.243c-11.518,0-20.254,3.46-25.967,10.279
	c-6.049,7.225-7.945,17.459-5.63,30.441c4.467,24.806,20.311,39.597,44.616,41.646c4.836,0.404,9.672,0.796,14.583,1.183
	c0.599,0.041,1.174,0.062,1.729,0.062c3.598,0,6.417-0.849,8.604-2.022c2.93,1.995,6.482,3.228,10.504,3.515
	c7.993,0.563,16.147,1.105,24.234,1.605l0.147,0.007c0.415,0.021,0.818,0.03,1.211,0.03c3.486,0,6.259-0.77,8.441-1.853
	c0.169,0.103,0.322,0.226,0.495,0.323c2.792,1.593,5.755,2.484,8.805,2.65l0.794-14.627l9.515,0.478
	c3.387,0.171,6.774,0.335,10.069,0.491c-1.169-0.177-2.755-1.64-3.115-2.827l4.795-0.455c0.208,0.373,0.415,0.749,0.623,1.124
	l-0.786,16.879c3.796,0.177,6.811-0.553,9.161-1.649l1.188,2.17l11.303,0.455c0.245,0.009,0.489,0.014,0.732,0.014
	c2.99,0,5.874-0.714,8.576-2.122c0.698-0.362,1.358-0.778,1.993-1.225c3.075,2.489,7.028,3.94,11.6,4.081l0.93,0.019
	c6.893,0,11.114-2.868,13.441-5.273c2.347-2.425,5.097-6.792,4.866-13.828l-0.75-15.117c0.454-0.547,0.915-1.095,1.371-1.641
	l0.631,17.916c0.33,11.083,7.961,18.601,18.987,18.71l0.255,0.002c6.903,0,11.149-2.853,13.497-5.243
	c2.367-2.409,5.16-6.761,5.03-13.878l-0.066-2.582c0.808,0.096,1.656,0.15,2.547,0.159h0.206c1.018,0,1.979-0.062,2.885-0.175
	l0.021,3.407c0.27,11.148,7.85,18.685,18.863,18.751h0.108l0.107-0.003c3.597-0.043,6.813-0.868,9.534-2.326
	c0.016,0.007,0.031,0.018,0.046,0.027c2.845,1.542,5.895,2.324,9.071,2.324c0.041,0,0.082,0,0.124,0l-0.095-14.701l12.133-0.137
	c3.225-0.034,6.447-0.075,9.672-0.123l0.221,14.675c3.108-0.046,5.945-0.698,8.418-1.865l0.795,1.774l12.443-0.267
	c3.056-0.068,6.032-0.88,8.862-2.416c2.21,1.042,5.001,1.781,8.482,1.781c0.242,0,0.49-0.002,0.744-0.009
	c8.477-0.25,14.859-4.682,17.574-11.731c0.625,0.835,2.266,3.032,2.266,3.032l0.45,0.48c5.391,5.734,11.12,6.94,14.979,6.94
	c0.268,0,0.536-0.007,0.805-0.019l0.182-0.007c3.985-0.171,7.496-1.265,10.386-3.128c2.282,1.258,5.28,2.195,9.148,2.195
	c0.405,0,0.821-0.012,1.253-0.032c11.965-0.601,24.125-1.292,36.14-2.056l0.149-0.01c3.668-0.279,6.93-1.351,9.678-3.066
	c2.217,1.143,5.061,1.964,8.672,1.964c0.374,0,0.758-0.01,1.151-0.027l0.251-0.012l0.248-0.022
	c4.042-0.362,7.572-1.643,10.471-3.677c2.271,1.145,5.205,1.964,8.966,1.964c0.741,0,1.519-0.032,2.386-0.101
	c7.85-0.673,13.871-5.211,16.545-12.227c0.371,0.566,0.743,1.135,1.114,1.701c3.256,4.9,8.551,7.712,14.526,7.712
	c0.524,0,1.062-0.023,1.611-0.066l0.265-0.024c10.554-1.085,17.883-7.296,19.622-16.718l8.023-45.807
	C559.667,445.437,556.874,440.908,555.107,438.832z M52.806,479.036c-4.379-0.396-5.812-1.738-6.583-6.215
	c4.945,0.398,9.89,0.785,14.734,1.151c0.707,0.059,1.407,0.088,2.082,0.088c0.947,0,1.835-0.061,2.678-0.168l0.861,6.26
	C61.963,479.791,57.348,479.416,52.806,479.036z M149.084,505.805c0.086-1.466,1.209-3.133,2.621-4.261
	c0.317,0.57,0.634,1.137,0.949,1.706c0.4,0.721,0.8,1.439,1.2,2.158L149.084,505.805z M319.485,503.819l2.094,1.058
	c0.009,0.017,0.017,0.034,0.024,0.051l0.028,1.929l-4.252-0.144C317.59,505.713,318.462,504.587,319.485,503.819z M317.366,506.86
	l4.266,0.089l0.068,4.497C319.809,511.048,317.568,508.716,317.366,506.86z"/>
<g>
	<path fill="#B14426" d="M44.74,446.422c5.028,0.437,10.058,0.859,15.088,1.27c4.992,0.45,7.842,3.062,8.549,7.846
		c0.671,4.966-1.476,7.247-6.441,6.828c-4.945-0.373-9.889-0.76-14.832-1.16c-9.918-0.923-14.044,3.524-12.387,13.419
		c1.637,9.771,7.316,15.132,17.041,16.01c4.834,0.405,9.668,0.799,14.503,1.176c4.882,0.474,7.658,3.078,8.33,7.83
		c0.693,4.904-1.335,7.197-6.085,6.856c-4.817-0.378-9.632-0.77-14.447-1.172c-19.214-1.622-30.583-12.425-34.126-32.104
		c-3.506-19.665,4.725-28.496,24.714-26.808C44.678,446.417,44.709,446.42,44.74,446.422z"/>
	<path fill="#B14426" d="M81.522,449.174c5.064,0.476,7.909,3.051,8.536,7.739c1.553,12.297,3.107,24.595,4.66,36.89
		c5.63,0.385,11.262,0.748,16.894,1.099c4.907,0.332,7.633,2.955,8.177,7.88c0.531,4.802-1.579,7.1-6.33,6.865
		c-8.045-0.496-16.089-1.028-24.131-1.597c-4.787-0.342-7.522-2.896-8.208-7.648c-2.032-14.774-4.064-29.547-6.096-44.321
		C74.383,451.207,76.548,448.911,81.522,449.174z"/>
	<path fill="#B14426" d="M176.796,454.254c2.512,0.093,4.442,0.757,5.791,1.992c1.342,1.231,6.16,6.492,14.25,15.728
		c7.179-8.926,11.478-13.98,12.686-15.122c1.213-1.145,3.079-1.681,5.592-1.622c2.447,0.057,4.359,0.71,5.724,1.956
		c1.302,1.188,1.993,2.91,2.082,5.166c0.005,0.137,0.01,0.273,0.016,0.412c0.102,2.593-1.131,4.991-3.679,7.19
		c-4.839,5.714-9.619,11.417-14.338,17.106c0.323,6.485,0.645,12.971,0.967,19.456c0.157,4.788-2.145,7.151-6.904,7.069
		c-0.105-0.004-0.211-0.007-0.317-0.011c-4.55-0.139-6.983-2.719-7.296-7.726c-0.431-6.442-0.861-12.887-1.293-19.328
		c-5.195-5.898-10.447-11.813-15.756-17.741c-2.803-2.361-4.312-4.841-4.505-7.438c-0.01-0.137-0.021-0.275-0.031-0.411
		c-0.169-2.262,0.329-3.947,1.498-5.058C172.508,454.705,174.348,454.164,176.796,454.254z"/>
	<g>
		<path fill="#B14426" d="M154.278,511.858c4.669,0.219,6.805-2.127,6.4-7.013c-0.461-4.841-3.071-7.402-7.826-7.705
			c-3.373-0.157-6.745-0.32-10.117-0.491c2.694-6.725,5.437-13.45,8.227-20.184c4.005,7.052,7.962,14.092,11.873,21.125
			c2.792,5.023,5.561,10.041,8.305,15.055c1.566,0.063,3.133,0.125,4.7,0.187c1.205,0.046,2.366-0.221,3.483-0.803
			c1.118-0.583,1.961-1.451,2.531-2.603c0.568-1.155,0.811-2.37,0.724-3.653c-0.099-1.283-4.237-9.381-12.746-24.354
			c-8.53-14.977-13.33-23.087-14.073-24.276c-0.756-1.189-1.757-2.141-3.004-2.851c-1.248-0.712-2.532-1.096-3.85-1.157
			c-1.286-0.06-2.505,0.207-3.651,0.805c-1.148,0.599-1.996,1.463-2.546,2.594c-0.539,1.126-3.918,8.855-9.811,23.157
			c-5.871,14.299-8.577,22.076-8.45,23.361c0.139,1.287,0.598,2.534,1.375,3.751c0.775,1.215,1.769,2.17,2.981,2.859
			c1.211,0.691,2.436,1.071,3.67,1.138"/>
	</g>
	<g>
		<path fill="#341C0F" d="M321.747,514.536c4.675-0.071,7.092-2.558,7.254-7.435c0.101-4.831-2.228-7.24-6.976-7.249
			c-3.376,0.05-6.75,0.093-10.126,0.132c3.496-6.915,7.039-13.838,10.631-20.764c3.208,6.826,6.369,13.65,9.482,20.468
			c2.224,4.868,4.422,9.731,6.598,14.595c1.567-0.034,3.137-0.068,4.703-0.103c1.206-0.027,2.403-0.368,3.596-1.021
			c1.188-0.652,2.137-1.576,2.841-2.766c0.708-1.194,1.092-2.427,1.153-3.71c0.051-1.283-3.164-9.156-9.974-23.658
			c-6.831-14.501-10.718-22.347-11.327-23.493c-0.621-1.146-1.519-2.04-2.689-2.675c-1.173-0.638-2.419-0.944-3.736-0.924
			c-1.29,0.019-2.546,0.361-3.771,1.032c-1.223,0.672-2.179,1.593-2.862,2.76c-0.675,1.165-4.976,9.129-12.577,23.844
			c-7.577,14.716-11.214,22.687-11.235,23.97c-0.011,1.282,0.307,2.507,0.948,3.68c0.641,1.172,1.531,2.068,2.671,2.685
			c1.141,0.619,2.328,0.924,3.566,0.917"/>
	</g>
	<path fill="#341C0F" d="M236.074,456.126c2.532,0.103,4.417,0.748,5.649,1.949c1.224,1.199,7.06,6.781,17.213,16.667
		c9.735-9.634,15.36-15.115,16.597-16.371c1.241-1.258,3.102-1.884,5.568-1.881c4.969,0.029,7.457,2.432,7.462,7.227
		c-0.053,14.565-0.106,29.131-0.16,43.696c-0.027,4.856-2.47,7.322-7.332,7.384c-4.741-0.03-7.171-2.498-7.29-7.387
		c-0.046-8.571-0.092-17.143-0.138-25.716c-4.916,4.993-7.934,8.091-9.126,9.314c-1.193,1.22-2.989,1.822-5.396,1.805
		c-2.349-0.021-4.156-0.667-5.432-1.94c-1.276-1.271-4.398-4.358-9.431-9.279c0.214,8.528,0.43,17.057,0.645,25.582
		c0.089,4.825-2.251,7.228-7.022,7.18c-4.83-0.048-7.316-2.523-7.461-7.411c-0.513-14.57-1.027-29.14-1.54-43.71
		C228.707,458.411,231.106,456.044,236.074,456.126z"/>
	<path fill="#341C0F" d="M364.543,455.273c8.775-0.257,17.548-0.555,26.32-0.894c4.87-0.188,9.06,1.47,12.522,4.986
		s4.958,7.639,4.524,12.384c-0.43,5.05-1.725,9.35-3.862,12.896c-2.139,3.546-5.047,5.462-8.742,5.734
		c2.767,2.917,5.512,5.828,8.239,8.735c1.334,1.365,1.897,3.214,1.697,5.558c-0.504,4.838-3.11,7.365-7.817,7.565
		c-0.06,0.002-0.119,0.005-0.18,0.009c-2.402,0.103-4.66-0.984-6.8-3.262c-4.359-5.842-8.778-11.692-13.259-17.555
		c-2.297-2.529-3.396-4.993-3.274-7.393c0.306-4.92,2.951-7.445,7.937-7.596c1.74-0.077,3.48-0.156,5.221-0.236
		c3.9-0.086,5.912-1.335,6.031-3.732c0.182-2.402-1.662-3.524-5.525-3.376c-5.457,0.205-10.914,0.396-16.373,0.57
		c-0.729,12.118-1.461,24.238-2.191,36.355c-0.268,4.861-2.827,7.37-7.688,7.514c-4.801,0.139-7.083-2.197-6.844-6.992
		c0.736-14.622,1.471-29.242,2.207-43.864C356.956,457.91,359.574,455.449,364.543,455.273z"/>
	<path fill="#341C0F" d="M423.646,452.831c5.015-0.13,7.306,2.124,6.871,6.776c-1.23,12.215-2.461,24.433-3.69,36.648
		c9.635-0.51,19.266-1.069,28.896-1.679c4.877-0.28,7.006,2.024,6.396,6.929c-0.597,4.784-3.266,7.366-8.005,7.728
		c-11.993,0.76-23.989,1.442-35.988,2.045c-4.767,0.239-6.955-2.006-6.568-6.718c1.313-14.656,2.624-29.314,3.937-43.973
		C415.956,455.751,418.673,453.171,423.646,452.831z"/>
	<path fill="#341C0F" d="M481.652,449.459c4.986-0.323,7.197,1.896,6.627,6.679c-2.021,14.67-4.041,29.342-6.061,44.012
		c-0.732,4.852-3.483,7.502-8.258,7.93c-4.777,0.223-6.858-2.088-6.245-6.901c1.872-14.646,3.744-29.292,5.617-43.938
		C473.917,452.398,476.693,449.809,481.652,449.459z"/>
	<path fill="#341C0F" d="M504.468,447.753c2.678,0,4.693,0.83,6.039,2.502c6.03,8.722,11.92,17.427,17.671,26.114
		c1.366-8.208,2.733-16.417,4.101-24.624c0.788-4.199,3.261-6.524,7.419-6.995c5.593-0.421,8.037,1.508,7.336,5.821
		c-2.667,15.22-5.333,30.442-8,45.663c-0.774,4.194-3.887,6.583-9.342,7.143c-2.449,0.196-4.283-0.632-5.512-2.481
		c-5.663-8.665-11.467-17.348-17.411-26.046c-1.243,8.183-2.486,16.364-3.729,24.549c-0.674,4.215-3.076,6.508-7.213,6.863
		c-5.42,0.428-7.84-1.52-7.261-5.819c2.163-15.223,4.326-30.447,6.489-45.67C495.652,450.56,498.787,448.228,504.468,447.753z"/>
</g>
<g>
	<path fill="#B14426" d="M44.74,446.422c5.028,0.437,10.058,0.859,15.088,1.27c4.992,0.45,7.842,3.062,8.549,7.846
		c0.671,4.966-1.476,7.247-6.441,6.828c-4.945-0.373-9.889-0.76-14.832-1.16c-9.918-0.923-14.044,3.524-12.387,13.419
		c1.637,9.771,7.316,15.132,17.041,16.01c4.834,0.405,9.668,0.799,14.503,1.176c4.882,0.474,7.658,3.078,8.33,7.83
		c0.693,4.904-1.335,7.197-6.085,6.856c-4.817-0.378-9.632-0.77-14.447-1.172c-19.214-1.622-30.583-12.425-34.126-32.104
		c-3.506-19.665,4.725-28.496,24.714-26.808C44.678,446.417,44.709,446.42,44.74,446.422z"/>
	<path fill="#B14426" d="M81.522,449.174c5.064,0.476,7.909,3.051,8.536,7.739c1.553,12.297,3.107,24.595,4.66,36.89
		c5.63,0.385,11.262,0.748,16.894,1.099c4.907,0.332,7.633,2.955,8.177,7.88c0.531,4.802-1.579,7.1-6.33,6.865
		c-8.045-0.496-16.089-1.028-24.131-1.597c-4.787-0.342-7.522-2.896-8.208-7.648c-2.032-14.774-4.064-29.547-6.096-44.321
		C74.383,451.207,76.548,448.911,81.522,449.174z"/>
	<path fill="#B14426" d="M176.796,454.254c2.512,0.093,4.442,0.757,5.791,1.992c1.342,1.231,6.16,6.492,14.25,15.728
		c7.179-8.926,11.478-13.98,12.686-15.122c1.213-1.145,3.079-1.681,5.592-1.622c2.447,0.057,4.359,0.71,5.724,1.956
		c1.302,1.188,1.993,2.91,2.082,5.166c0.005,0.137,0.01,0.273,0.016,0.412c0.102,2.593-1.131,4.991-3.679,7.19
		c-4.839,5.714-9.619,11.417-14.338,17.106c0.323,6.485,0.645,12.971,0.967,19.456c0.157,4.788-2.145,7.151-6.904,7.069
		c-0.105-0.004-0.211-0.007-0.317-0.011c-4.55-0.139-6.983-2.719-7.296-7.726c-0.431-6.442-0.861-12.887-1.293-19.328
		c-5.195-5.898-10.447-11.813-15.756-17.741c-2.803-2.361-4.312-4.841-4.505-7.438c-0.01-0.137-0.021-0.275-0.031-0.411
		c-0.169-2.262,0.329-3.947,1.498-5.058C172.508,454.705,174.348,454.164,176.796,454.254z"/>
	<path fill="#B14426" d="M154.278,511.858c4.669,0.219,6.805-2.127,6.4-7.013c-0.461-4.841-3.071-7.402-7.826-7.705
		c-3.373-0.157-6.745-0.32-10.117-0.491c2.694-6.725,5.437-13.45,8.227-20.184c4.005,7.052,7.962,14.092,11.873,21.125
		c2.792,5.023,5.561,10.041,8.305,15.055c1.566,0.063,3.133,0.125,4.7,0.187c1.205,0.046,2.366-0.221,3.483-0.803
		c1.118-0.583,1.961-1.451,2.531-2.603c0.568-1.155,0.811-2.37,0.724-3.653c-0.099-1.283-4.237-9.381-12.746-24.354
		c-8.53-14.977-13.33-23.087-14.073-24.276c-0.756-1.189-1.757-2.141-3.004-2.851c-1.248-0.712-2.532-1.096-3.85-1.157
		c-1.286-0.06-2.505,0.207-3.651,0.805c-1.148,0.599-1.996,1.463-2.546,2.594c-0.539,1.126-3.918,8.855-9.811,23.157
		c-5.871,14.299-8.577,22.076-8.45,23.361c0.139,1.287,0.598,2.534,1.375,3.751c0.775,1.215,1.769,2.17,2.981,2.859
		c1.211,0.691,2.436,1.071,3.67,1.138"/>
	<path fill="#341C0F" d="M321.747,514.536c4.675-0.071,7.092-2.558,7.254-7.435c0.101-4.831-2.228-7.24-6.976-7.249
		c-3.376,0.05-6.75,0.093-10.126,0.132c3.496-6.915,7.039-13.838,10.631-20.764c3.208,6.826,6.369,13.65,9.482,20.468
		c2.224,4.868,4.422,9.731,6.598,14.595c1.567-0.034,3.137-0.068,4.703-0.103c1.206-0.027,2.403-0.368,3.596-1.021
		c1.188-0.652,2.137-1.576,2.841-2.766c0.708-1.194,1.092-2.427,1.153-3.71c0.051-1.283-3.164-9.156-9.974-23.658
		c-6.831-14.501-10.718-22.347-11.327-23.493c-0.621-1.146-1.519-2.04-2.689-2.675c-1.173-0.638-2.419-0.944-3.736-0.924
		c-1.29,0.019-2.546,0.361-3.771,1.032c-1.223,0.672-2.179,1.593-2.862,2.76c-0.675,1.165-4.976,9.129-12.577,23.844
		c-7.577,14.716-11.214,22.687-11.235,23.97c-0.011,1.282,0.307,2.507,0.948,3.68c0.641,1.172,1.531,2.068,2.671,2.685
		c1.141,0.619,2.328,0.924,3.566,0.917"/>
	<path fill="#341C0F" d="M236.074,456.126c2.532,0.103,4.417,0.748,5.649,1.949c1.224,1.199,7.06,6.781,17.213,16.667
		c9.735-9.634,15.36-15.115,16.597-16.371c1.241-1.258,3.102-1.884,5.568-1.881c4.969,0.029,7.457,2.432,7.462,7.227
		c-0.053,14.565-0.106,29.131-0.16,43.696c-0.027,4.856-2.47,7.322-7.332,7.384c-4.741-0.03-7.171-2.498-7.29-7.387
		c-0.046-8.571-0.092-17.143-0.138-25.716c-4.916,4.993-7.934,8.091-9.126,9.314c-1.193,1.22-2.989,1.822-5.396,1.805
		c-2.349-0.021-4.156-0.667-5.432-1.94c-1.276-1.271-4.398-4.358-9.431-9.279c0.214,8.528,0.43,17.057,0.645,25.582
		c0.089,4.825-2.251,7.228-7.022,7.18c-4.83-0.048-7.316-2.523-7.461-7.411c-0.513-14.57-1.027-29.14-1.54-43.71
		C228.707,458.411,231.106,456.044,236.074,456.126z"/>
	<path fill="#341C0F" d="M364.543,455.273c8.775-0.257,17.548-0.555,26.32-0.894c4.87-0.188,9.06,1.47,12.522,4.986
		s4.958,7.639,4.524,12.384c-0.43,5.05-1.725,9.35-3.862,12.896c-2.139,3.546-5.047,5.462-8.742,5.734
		c2.767,2.917,5.512,5.828,8.239,8.735c1.334,1.365,1.897,3.214,1.697,5.558c-0.504,4.838-3.11,7.365-7.817,7.565
		c-0.06,0.002-0.119,0.005-0.18,0.009c-2.402,0.103-4.66-0.984-6.8-3.262c-4.359-5.842-8.778-11.692-13.259-17.555
		c-2.297-2.529-3.396-4.993-3.274-7.393c0.306-4.92,2.951-7.445,7.937-7.596c1.74-0.077,3.48-0.156,5.221-0.236
		c3.9-0.086,5.912-1.335,6.031-3.732c0.182-2.402-1.662-3.524-5.525-3.376c-5.457,0.205-10.914,0.396-16.373,0.57
		c-0.729,12.118-1.461,24.238-2.191,36.355c-0.268,4.861-2.827,7.37-7.688,7.514c-4.801,0.139-7.083-2.197-6.844-6.992
		c0.736-14.622,1.471-29.242,2.207-43.864C356.956,457.91,359.574,455.449,364.543,455.273z"/>
	<path fill="#341C0F" d="M423.646,452.831c5.015-0.13,7.306,2.124,6.871,6.776c-1.23,12.215-2.461,24.433-3.69,36.648
		c9.635-0.51,19.266-1.069,28.896-1.679c4.877-0.28,7.006,2.024,6.396,6.929c-0.597,4.784-3.266,7.366-8.005,7.728
		c-11.993,0.76-23.989,1.442-35.988,2.045c-4.767,0.239-6.955-2.006-6.568-6.718c1.313-14.656,2.624-29.314,3.937-43.973
		C415.956,455.751,418.673,453.171,423.646,452.831z"/>
	<path fill="#341C0F" d="M481.652,449.459c4.986-0.323,7.197,1.896,6.627,6.679c-2.021,14.67-4.041,29.342-6.061,44.012
		c-0.732,4.852-3.483,7.502-8.258,7.93c-4.777,0.223-6.858-2.088-6.245-6.901c1.872-14.646,3.744-29.292,5.617-43.938
		C473.917,452.398,476.693,449.809,481.652,449.459z"/>
	<path fill="#341C0F" d="M504.468,447.753c2.678,0,4.693,0.83,6.039,2.502c6.03,8.722,11.92,17.427,17.671,26.114
		c1.366-8.208,2.733-16.417,4.101-24.624c0.788-4.199,3.261-6.524,7.419-6.995c5.593-0.421,8.037,1.508,7.336,5.821
		c-2.667,15.22-5.333,30.442-8,45.663c-0.774,4.194-3.887,6.583-9.342,7.143c-2.449,0.196-4.283-0.632-5.512-2.481
		c-5.663-8.665-11.467-17.348-17.411-26.046c-1.243,8.183-2.486,16.364-3.729,24.549c-0.674,4.215-3.076,6.508-7.213,6.863
		c-5.42,0.428-7.84-1.52-7.261-5.819c2.163-15.223,4.326-30.447,6.489-45.67C495.652,450.56,498.787,448.228,504.468,447.753z"/>
</g>
<path id="XMLID_3_" fill="#0F2A33" d="M547.68,527.916l-7.376,37.545c0,0,4.022-22.127-11.732-25.478
	c-15.755-3.353-21.12,42.909-21.12,42.909"/>
<path id="XMLID_4_" fill="#0F2A33" d="M477.952,423.998c-25.141-15.086-46.26-16.763-46.26-16.763s-1.676,15.086-12.404,25.478
	c-10.728,10.394-26.482,40.897-26.482,40.897s5.364-33.188,12.069-48.272c6.703-15.084,9.385-21.119,9.385-21.119
	s-7.24-1.677-15.419-7.041c0,0,33.521,8.38,50.618-13.744c0,0,74.755-14.415,125.037-5.698c0,0-81.794,6.033-107.604,17.431"/>
<path id="XMLID_1_" fill="#0F2A33" d="M509.129,441.763"/>
</svg>
